<?xml version="1.0" encoding="UTF-8" standalone="no"?>
<!-- Created with Inkscape (http://www.inkscape.org/) -->

<svg
   width="1920"
   height="1080"
   viewBox="0 0 1920 1080"
   version="1.1"
   id="svg1"
   xml:space="preserve"
   sodipodi:docname="Intro.svg"
   inkscape:version="1.3.2 (091e20e, 2023-11-25)"
   xmlns:inkscape="http://www.inkscape.org/namespaces/inkscape"
   xmlns:sodipodi="http://sodipodi.sourceforge.net/DTD/sodipodi-0.dtd"
   xmlns="http://www.w3.org/2000/svg"
   xmlns:svg="http://www.w3.org/2000/svg"><sodipodi:namedview
     id="namedview1"
     pagecolor="#ffffff"
     bordercolor="#000000"
     borderopacity="0.25"
     inkscape:showpageshadow="2"
     inkscape:pageopacity="0.0"
     inkscape:pagecheckerboard="0"
     inkscape:deskcolor="#d1d1d1"
     inkscape:document-units="px"
     inkscape:zoom="0.47927995"
     inkscape:cx="880.48749"
     inkscape:cy="542.48045"
     inkscape:window-width="1440"
     inkscape:window-height="785"
     inkscape:window-x="0"
     inkscape:window-y="25"
     inkscape:window-maximized="0"
     inkscape:current-layer="layer1"
     showguides="false" /><defs
     id="defs1"><linearGradient
       id="swatch1"
       inkscape:swatch="solid"><stop
         style="stop-color:#000000;stop-opacity:1;"
         offset="0"
         id="stop1" /></linearGradient><inkscape:path-effect
       effect="fillet_chamfer"
       id="path-effect16"
       is_visible="true"
       lpeversion="1"
       nodesatellites_param="F,0,0,1,0,10,0,1 @ F,0,0,1,0,10,0,1 @ F,0,0,1,0,10,0,1 @ F,0,0,1,0,10,0,1"
       radius="10"
       unit="px"
       method="auto"
       mode="F"
       chamfer_steps="1"
       flexible="false"
       use_knot_distance="true"
       apply_no_radius="true"
       apply_with_radius="true"
       only_selected="false"
       hide_knots="false" /><inkscape:path-effect
       effect="fillet_chamfer"
       id="path-effect15"
       is_visible="true"
       lpeversion="1"
       nodesatellites_param="F,0,0,1,0,15,0,1 @ F,0,0,1,0,15,0,1 @ F,0,0,1,0,15,0,1 @ F,0,0,1,0,15,0,1"
       radius="15"
       unit="px"
       method="auto"
       mode="F"
       chamfer_steps="1"
       flexible="false"
       use_knot_distance="true"
       apply_no_radius="true"
       apply_with_radius="true"
       only_selected="false"
       hide_knots="false" /><inkscape:path-effect
       effect="fillet_chamfer"
       id="path-effect14"
       is_visible="true"
       lpeversion="1"
       nodesatellites_param="F,0,0,1,0,15,0,1 @ F,0,0,1,0,15,0,1 @ F,0,0,1,0,15,0,1 @ F,0,0,1,0,15,0,1"
       radius="15"
       unit="px"
       method="auto"
       mode="F"
       chamfer_steps="1"
       flexible="false"
       use_knot_distance="true"
       apply_no_radius="true"
       apply_with_radius="true"
       only_selected="false"
       hide_knots="false" /><inkscape:path-effect
       effect="fillet_chamfer"
       id="path-effect13"
       is_visible="true"
       lpeversion="1"
       nodesatellites_param="F,0,0,1,0,10,0,1 @ F,0,0,1,0,10,0,1 @ F,0,0,1,0,10,0,1 @ F,0,0,1,0,10,0,1"
       radius="10"
       unit="px"
       method="auto"
       mode="F"
       chamfer_steps="1"
       flexible="false"
       use_knot_distance="true"
       apply_no_radius="true"
       apply_with_radius="true"
       only_selected="false"
       hide_knots="false" /><inkscape:path-effect
       effect="fillet_chamfer"
       id="path-effect12"
       is_visible="true"
       lpeversion="1"
       nodesatellites_param="F,0,0,1,0,10,0,1 @ F,0,0,1,0,10,0,1 @ F,0,0,1,0,10,0,1 @ F,0,0,1,0,10,0,1"
       radius="10"
       unit="px"
       method="auto"
       mode="F"
       chamfer_steps="1"
       flexible="false"
       use_knot_distance="true"
       apply_no_radius="true"
       apply_with_radius="true"
       only_selected="false"
       hide_knots="false" /><inkscape:path-effect
       effect="fillet_chamfer"
       id="path-effect11"
       is_visible="true"
       lpeversion="1"
       nodesatellites_param="F,0,0,1,0,10,0,1 @ F,0,0,1,0,10,0,1 @ F,0,0,1,0,10,0,1 @ F,0,0,1,0,10,0,1"
       radius="10"
       unit="px"
       method="auto"
       mode="F"
       chamfer_steps="1"
       flexible="false"
       use_knot_distance="true"
       apply_no_radius="true"
       apply_with_radius="true"
       only_selected="false"
       hide_knots="false" /><inkscape:path-effect
       effect="fillet_chamfer"
       id="path-effect10"
       is_visible="true"
       lpeversion="1"
       nodesatellites_param="F,0,0,1,0,10,0,1 @ F,0,0,1,0,10,0,1 @ F,0,0,1,0,10,0,1 @ F,0,0,1,0,10,0,1"
       radius="10"
       unit="px"
       method="auto"
       mode="F"
       chamfer_steps="1"
       flexible="false"
       use_knot_distance="true"
       apply_no_radius="true"
       apply_with_radius="true"
       only_selected="false"
       hide_knots="false" /><inkscape:path-effect
       effect="fillet_chamfer"
       id="path-effect9"
       is_visible="true"
       lpeversion="1"
       nodesatellites_param="F,0,0,1,0,10,0,1 @ F,0,0,1,0,10,0,1 @ F,0,0,1,0,10,0,1 @ F,0,0,1,0,10,0,1"
       radius="10"
       unit="px"
       method="auto"
       mode="F"
       chamfer_steps="1"
       flexible="false"
       use_knot_distance="true"
       apply_no_radius="true"
       apply_with_radius="true"
       only_selected="false"
       hide_knots="false" /><inkscape:path-effect
       effect="fillet_chamfer"
       id="path-effect7"
       is_visible="true"
       lpeversion="1"
       nodesatellites_param="F,0,0,1,0,0,0,1 @ F,0,0,1,0,0,0,1 @ F,0,0,1,0,0,0,1 @ F,0,0,1,0,0,0,1"
       radius="0"
       unit="px"
       method="auto"
       mode="F"
       chamfer_steps="1"
       flexible="false"
       use_knot_distance="true"
       apply_no_radius="true"
       apply_with_radius="true"
       only_selected="false"
       hide_knots="false" /><inkscape:path-effect
       effect="fillet_chamfer"
       id="path-effect6"
       is_visible="true"
       lpeversion="1"
       nodesatellites_param="F,0,0,1,0,0,0,1 @ F,0,0,1,0,0,0,1 @ F,0,0,1,0,0,0,1 @ F,0,0,1,0,0,0,1"
       radius="0"
       unit="px"
       method="auto"
       mode="F"
       chamfer_steps="1"
       flexible="false"
       use_knot_distance="true"
       apply_no_radius="true"
       apply_with_radius="true"
       only_selected="false"
       hide_knots="false" /><inkscape:perspective
       sodipodi:type="inkscape:persp3d"
       inkscape:vp_x="0 : 540 : 1"
       inkscape:vp_y="0 : 1000 : 0"
       inkscape:vp_z="1920 : 540 : 1"
       inkscape:persp3d-origin="960 : 360 : 1"
       id="perspective5" /><inkscape:path-effect
       effect="fillet_chamfer"
       id="path-effect16-9"
       is_visible="true"
       lpeversion="1"
       nodesatellites_param="F,0,0,1,0,10,0,1 @ F,0,0,1,0,10,0,1 @ F,0,0,1,0,10,0,1 @ F,0,0,1,0,10,0,1"
       radius="10"
       unit="px"
       method="auto"
       mode="F"
       chamfer_steps="1"
       flexible="false"
       use_knot_distance="true"
       apply_no_radius="true"
       apply_with_radius="true"
       only_selected="false"
       hide_knots="false" /><inkscape:path-effect
       effect="fillet_chamfer"
       id="path-effect10-3"
       is_visible="true"
       lpeversion="1"
       nodesatellites_param="F,0,0,1,0,10,0,1 @ F,0,0,1,0,10,0,1 @ F,0,0,1,0,10,0,1 @ F,0,0,1,0,10,0,1"
       radius="10"
       unit="px"
       method="auto"
       mode="F"
       chamfer_steps="1"
       flexible="false"
       use_knot_distance="true"
       apply_no_radius="true"
       apply_with_radius="true"
       only_selected="false"
       hide_knots="false" /><inkscape:path-effect
       effect="fillet_chamfer"
       id="path-effect14-8"
       is_visible="true"
       lpeversion="1"
       nodesatellites_param="F,0,0,1,0,15,0,1 @ F,0,0,1,0,15,0,1 @ F,0,0,1,0,15,0,1 @ F,0,0,1,0,15,0,1"
       radius="15"
       unit="px"
       method="auto"
       mode="F"
       chamfer_steps="1"
       flexible="false"
       use_knot_distance="true"
       apply_no_radius="true"
       apply_with_radius="true"
       only_selected="false"
       hide_knots="false" /><inkscape:path-effect
       effect="fillet_chamfer"
       id="path-effect14-8-1"
       is_visible="true"
       lpeversion="1"
       nodesatellites_param="F,0,0,1,0,15,0,1 @ F,0,0,1,0,15,0,1 @ F,0,0,1,0,15,0,1 @ F,0,0,1,0,15,0,1"
       radius="15"
       unit="px"
       method="auto"
       mode="F"
       chamfer_steps="1"
       flexible="false"
       use_knot_distance="true"
       apply_no_radius="true"
       apply_with_radius="true"
       only_selected="false"
       hide_knots="false" /><inkscape:path-effect
       effect="fillet_chamfer"
       id="path-effect14-8-1-0"
       is_visible="true"
       lpeversion="1"
       nodesatellites_param="F,0,0,1,0,15,0,1 @ F,0,0,1,0,15,0,1 @ F,0,0,1,0,15,0,1 @ F,0,0,1,0,15,0,1"
       radius="15"
       unit="px"
       method="auto"
       mode="F"
       chamfer_steps="1"
       flexible="false"
       use_knot_distance="true"
       apply_no_radius="true"
       apply_with_radius="true"
       only_selected="false"
       hide_knots="false" /></defs><g
     inkscape:label="Vrstva 1"
     inkscape:groupmode="layer"
     id="layer1"><rect
       style="fill:#240539;fill-opacity:1;stroke-width:1.12211"
       id="rect1"
       width="1920"
       height="150"
       x="0"
       y="0" /><g
       id="g12"
       transform="matrix(0.59606561,0,0,0.50458663,23.104713,21.954366)"
       style="fill:#ffffff;fill-opacity:1"><g
         id="g2"
         transform="matrix(0.22440179,0,0,0.24923384,11.216138,14.463305)"
         style="fill:#ffffff"><path
           id="path14"
           d="m 509.208,19.177 h -95.377 l -4.758,26.506 h 32.622 c 14.952,0 21.296,-0.226 26.732,-0.452 -4.528,4.758 -8.608,9.288 -12.456,14.5 l -68.646,89.713 -4.304,22.656 h 98.094 l 5.212,-27.185 h -30.132 c -18.124,0 -28.544,0 -32.17,0.449 3.4,-3.624 6.116,-7.02 8.836,-10.652 l 72.042,-91.973 z"
           fill="#160d2d"
           fill-opacity="1"
           stroke="none"
           style="fill:#ffffff;fill-opacity:1" /><path
           id="path16"
           d="m 575.721,88.503 c 0,12.004 -13.593,17.441 -39.645,18.349 4.076,-14.725 13.364,-28.319 28.092,-28.319 7.248,0 11.553,3.626 11.553,9.97 z m 28.092,-3.852 c 0,-13.594 -8.608,-27.412 -36.473,-27.412 -35.117,0 -63.661,31.941 -63.661,79.061 0,24.921 11.328,38.064 39.873,38.064 14.952,0 29.676,-2.499 42.137,-7.248 v -22.201 c -10.421,4.301 -21.976,6.793 -32.849,6.793 -15.632,0 -20.617,-3.853 -20.617,-16.761 0,-2.498 0.453,-6.351 0.681,-8.836 44.176,-1.367 70.909,-14.503 70.909,-41.46"
           fill="#160d2d"
           fill-opacity="1"
           stroke="none"
           style="fill:#ffffff;fill-opacity:1" /><path
           id="path18"
           d="m 684.143,88.503 c 0,12.004 -13.592,17.441 -39.644,18.349 4.076,-14.725 13.364,-28.319 28.088,-28.319 7.252,0 11.556,3.626 11.556,9.97 z m 28.089,-3.852 c 0,-13.594 -8.608,-27.412 -36.473,-27.412 -35.113,0 -63.658,31.941 -63.658,79.061 0,24.921 11.326,38.064 39.872,38.064 14.949,0 29.678,-2.499 42.138,-7.248 v -22.201 c -10.423,4.301 -21.976,6.793 -32.852,6.793 -15.629,0 -20.612,-3.853 -20.612,-16.761 0,-2.498 0.452,-6.351 0.68,-8.836 44.176,-1.367 70.905,-14.503 70.905,-41.46"
           fill="#160d2d"
           fill-opacity="1"
           stroke="none"
           style="fill:#ffffff;fill-opacity:1" /><path
           id="path20"
           d="m 779.881,6.492 c -16.32,-0.455 -33.757,0.225 -48.26,2.037 l -3.169,18.124 c 6.337,0.452 13.821,1.36 19.026,2.267 l -0.221,0.453 -27.185,142.727 h 28.317 z"
           fill="#160d2d"
           fill-opacity="1"
           stroke="none"
           style="fill:#ffffff;fill-opacity:1" /><path
           id="path22"
           d="m 858.42,81.703 -1.353,7.252 c -4.535,23.785 -24.699,60.71 -40.784,60.71 -5.662,0 -8.61,-4.529 -8.61,-15.629 0,-23.561 12.006,-53.917 38.059,-53.917 4.984,0 9.064,0.68 12.688,1.584 z m 32.169,-20.842 c -12.689,-2.49 -26.274,-3.396 -39.873,-3.396 -49.385,0 -72.264,39.418 -72.264,82.01 0,24.01 9.287,35.11 26.508,35.11 22.424,0 38.059,-21.745 47.123,-38.285 h 0.449 c -5.212,15.629 -8.381,26.964 -10.197,36.021 14.953,0.456 32.169,-0.221 46.666,-2.036 l 3.403,-18.122 c -6.344,-0.455 -13.82,-1.366 -18.804,-2.263 z"
           fill="#160d2d"
           fill-opacity="1"
           stroke="none"
           style="fill:#ffffff;fill-opacity:1" /><path
           id="path24"
           d="m 1023.916,94.391 c 4.307,-21.976 -2.264,-37.38 -24.244,-37.38 -21.289,0 -36.924,17.444 -47.341,37.608 l -0.456,-0.228 c 6.338,-17.672 8.836,-28.316 10.189,-35.114 -14.952,-0.454 -32.619,0.226 -47.12,2.038 l -3.397,18.124 c 6.572,0.452 14.048,1.36 19.032,2.264 v 0.456 L 913.361,172.1 h 28.318 l 5.433,-28.551 c 4.763,-26.274 25.376,-61.618 40.556,-61.618 7.021,0 9.284,5.664 6.8,19.484 L 980.869,172.1 h 28.316 z"
           fill="#160d2d"
           fill-opacity="1"
           stroke="none"
           style="fill:#ffffff;fill-opacity:1" /><path
           id="path26"
           d="m 1119.648,81.703 -1.355,7.252 c -4.533,23.785 -24.697,60.71 -40.783,60.71 -5.661,0 -8.608,-4.529 -8.608,-15.629 0,-23.561 12.006,-53.917 38.058,-53.917 4.984,0 9.064,0.68 12.688,1.584 z M 1162.24,6.492 c -16.311,-0.455 -33.756,0.225 -48.254,2.037 l -3.396,18.124 c 6.572,0.452 13.821,1.36 19.026,2.267 l -0.221,0.453 -5.441,28.998 c -4.762,-0.682 -8.158,-0.906 -12.01,-0.906 -49.386,0 -72.263,39.418 -72.263,82.01 0,24.01 9.291,35.11 26.508,35.11 22.421,0 38.057,-21.745 47.121,-38.285 h 0.45 c -5.212,15.629 -8.609,27.185 -9.969,36.021 14.725,0.456 31.941,-0.221 46.438,-2.036 l 3.403,-18.122 c -6.344,-0.455 -13.82,-1.366 -18.804,-2.263 z"
           fill="#160d2d"
           fill-opacity="1"
           stroke="none"
           style="fill:#ffffff;fill-opacity:1" /><path
           id="path28"
           d="m 1224.425,59.277 c -16.306,-0.454 -33.752,0.226 -48.254,2.038 l -3.395,18.124 c 6.569,0.452 14.047,1.36 19.031,2.264 v 0.456 L 1174.59,172.1 h 28.316 z m 9.746,-33.532 c 0,-8.152 -6.793,-15.856 -16.76,-15.856 -9.968,0 -19.039,7.928 -19.039,18.804 0,8.382 6.805,16.312 16.768,16.312 9.968,0 19.031,-7.93 19.031,-19.26"
           fill="#160d2d"
           fill-opacity="1"
           stroke="none"
           style="fill:#ffffff;fill-opacity:1" /><path
           id="path30"
           d="m 1313.293,81.703 -1.36,7.252 c -4.52,23.785 -24.693,60.71 -40.773,60.71 -5.667,0 -8.613,-4.529 -8.613,-15.629 0,-23.561 12.013,-53.917 38.066,-53.917 4.974,0 9.054,0.68 12.68,1.584 z m 32.174,-20.842 c -12.694,-2.49 -26.28,-3.396 -39.88,-3.396 -49.387,0 -72.264,39.418 -72.264,82.01 0,24.01 9.29,35.11 26.504,35.11 22.426,0 38.066,-21.745 47.12,-38.285 h 0.466 c -5.213,15.629 -8.386,26.964 -10.2,36.021 14.947,0.456 32.16,-0.221 46.667,-2.036 l 3.4,-18.122 c -6.347,-0.455 -13.827,-1.366 -18.8,-2.263 z"
           fill="#160d2d"
           fill-opacity="1"
           stroke="none"
           style="fill:#ffffff;fill-opacity:1" /><path
           id="path32"
           d="m 186.084,111.395 c 46.361,-24.148 34.449,-65.467 17.706,-82.744 36.06,18.674 43.143,85.313 -17.706,82.744 z m -39.475,43.845 -6.637,-4.473 -14.202,10.158 -0.014,-0.929 c 0,-17.776 17.938,-38.519 51.886,-30.12 -24.489,3.804 -31.833,13.82 -31.033,25.364 z m -43.005,11.076 C 85.762,139.759 101.902,119.145 113,112.568 l -3.923,-4.683 c 6.267,-3.812 16.844,-4.762 24.715,-4.762 8.121,0 18.329,2.953 24.722,6.993 -37.728,-1.779 -56.842,24.167 -54.91,56.2 z M 169.585,21.832 c 7.281,-0.993 13.395,0.247 19.077,2.489 -13.66,8.646 -20.804,6.772 -19.077,-2.489 z m 91.159,64.609 c 0,-38.689 -27.815,-74.592 -66.978,-79.552 -5.042,-0.637 -6.875,-0.873 -12.38,-0.944 L 178.75,14.3 c -3.114,-0.384 -3.48,-0.575 -6.693,-0.575 l -2.841,0.052 -43.051,17.07 3.069,17.044 31.814,0.049 c 1.864,1.64 2.744,5.381 2.744,8.061 0,4.928 -3.68,7.446 -8.582,7.462 h -23.152 c 0.57,3.165 1.091,5.269 0.937,5.97 -0.551,2.508 -14.249,11.408 -14.249,11.408 0,0 11.1,-3.374 17.048,-4.294 10.806,-1.678 17.95,0.886 24.21,-0.132 5.341,-0.871 12.34,-4.403 12.34,-4.403 l -4.234,8.121 c 11.219,-2.198 19.679,-12.084 19.679,-23.945 0,-2.78 -0.464,-5.451 -1.32,-7.94 4.748,4.452 5.732,11.048 5.732,18.072 0,13.479 -10.347,22.216 -23.825,22.216 -14.858,0 -24.682,-2.325 -41.507,-2.325 -12.587,0.002 -22.029,3.368 -30.935,9.201 0,0 -5.193,-6.78 -15.796,-20.397 C 69.022,60.736 61.412,47.993 52.621,47.001 41.183,45.716 37.318,45.393 24.627,46.801 c -8.755,0.974 -2.109,23.171 -2.109,23.171 0,0 1.054,-4.464 2.476,-6.572 0.926,-1.375 2.682,-3.295 2.682,-3.295 l 4.157,9.446 c 3.326,4.433 16.11,3.532 18.571,5.264 3.688,2.598 9.45,10.18 13.025,18.569 4.391,10.307 7.901,25.613 7.901,25.613 0,0 -1.437,-0.628 -4.922,-1.957 -9.15,-3.485 -18.786,-5.3 -24.475,-2.455 -10.294,5.151 -13.712,6.984 -23.585,15.083 -6.814,5.58 10.134,20.183 10.134,20.183 0,0 -0.833,-3.927 -0.787,-6.468 0.028,-1.655 0.455,-4.222 0.455,-4.222 l 8.631,5.655 c 5.201,1.908 11.077,-7.26 18.44,-5.697 6.092,1.292 12.641,6.928 15.187,8.706 1.245,14.331 7.826,27.13 17.745,36.415 3.224,-2.492 9.069,-6.399 13.251,-7.895 5.72,-2.044 67.688,-6.725 67.688,-6.725 l -6.79,-12.227 59.61,-18.397 v 15.992 c 18.037,-14.559 29.572,-36.852 29.572,-61.837 0,-1.298 -0.375,-4.806 -0.628,-7.26 l 9.549,5.894 c 0.084,-1.042 0.339,-4.242 0.339,-5.344"
           fill="#160d2d"
           fill-opacity="1"
           stroke="none"
           style="fill:#ffffff;fill-opacity:1" /><path
           id="path34"
           d="m 131.696,61.383 c 0,0 -21.988,0.082 -28.901,0.082 -9.67,0 -11.375,-17.61 -11.375,-17.61 0,0 6.141,6.144 9.997,6.144 l 28.227,0.016 z"
           fill="#160d2d"
           fill-opacity="1"
           stroke="none"
           style="fill:#ffffff;fill-opacity:1" /><path
           id="path36"
           d="m 1.568,234.197 c 5.822,-0.049 22.469,-0.344 37.898,-2.165 19.034,-2.252 42.155,-24.841 58.966,-35.141 6.172,-3.784 51.278,-8.947 67.716,-10.774 25.519,-2.842 82.444,4.319 82.444,4.319 0,0 -78.432,-1.127 -107.472,11.975 -25.41,11.462 -51.051,39.958 -59.012,44.062 -7.363,3.791 -25.143,10.343 -30.139,11.255 -3.753,0.677 -14.466,1.661 -19.552,2.111 z"
           fill="#160d2d"
           fill-opacity="1"
           stroke="none"
           style="fill:#ffffff;fill-opacity:1" /><path
           id="path38"
           d="m 46.185,271.277 c 11.02,-3.2 38.243,-11.26 41.126,-13.506 3.624,-2.818 36.968,-28.539 60.193,-37.38 37.288,-14.203 115.161,-19.592 126.073,-22.676 14.239,-4.03 53.33,-27.302 55.29,-29.062 1.962,-1.772 6.168,-4.725 6.168,-4.725 0,0 -10.764,30.927 -28.468,42.083 -15.534,9.788 -81.123,6.872 -95.064,8.742 -25.622,3.446 -67.131,28.12 -104.306,63.624 -4.146,3.97 -27.378,12.751 -34.122,15.248 z"
           fill="#160d2d"
           fill-opacity="1"
           stroke="none"
           style="fill:#ffffff;fill-opacity:1" /><path
           id="path40"
           d="m 81.884,300.948 c 6.792,-2.056 25.101,-7.803 30.015,-11.704 6.064,-4.824 52.312,-40.001 80.853,-49.331 33.525,-10.957 115.859,-10.22 115.859,-10.22 0,0 -75.82,14.632 -99.278,26.435 -23.454,11.795 -72.726,59.789 -77.946,61.384 -4.322,1.317 -17.366,5.2 -21.747,6.499 z"
           fill="#160d2d"
           fill-opacity="1"
           stroke="none"
           style="fill:#ffffff;fill-opacity:1" /></g></g><rect
       style="fill:#f2f2f2;fill-opacity:1;stroke-width:2.47197"
       id="rect3"
       width="1920"
       height="830"
       x="0"
       y="150" /><rect
       style="opacity:0;fill:#ffffff;fill-opacity:1;stroke:#143472;stroke-opacity:0.0790698"
       id="rect2"
       width="194.9826"
       height="233.7442"
       x="339.45767"
       y="37.587009" /><rect
       style="fill:#240539;fill-opacity:1;stroke-width:0.916199"
       id="rect1-75"
       width="1920"
       height="100"
       x="0"
       y="980" /><rect
       style="fill:#240539;fill-opacity:1;stroke-width:0.156191"
       id="rect1-75-8"
       width="1860"
       height="3"
       x="30"
       y="425" /><rect
       style="fill:#240539;fill-opacity:1;stroke-width:0.156191"
       id="rect1-75-8-8"
       width="1860"
       height="3"
       x="30"
       y="700" /><rect
       style="opacity:0;fill:none;fill-opacity:1;stroke:#143472;stroke-opacity:0.0790698"
       id="rect4"
       width="113.93562"
       height="151.52263"
       x="310.0928"
       y="-63.428074" /><rect
       style="fill:#ffffff;fill-opacity:1;stroke-width:0.156192"
       id="rect1-7"
       width="1860"
       height="3"
       x="30"
       y="100" /><text
       xml:space="preserve"
       style="opacity:0;fill:#ffffff;fill-opacity:0.325581;stroke:#143472;stroke-opacity:0.0790698"
       x="533.66846"
       y="256.80286"
       id="text6"><tspan
         sodipodi:role="line"
         id="tspan6"
         x="533.66846"
         y="256.80286" /></text></g></svg>
